<?xml version="1.0" encoding="utf-8"?>
<!-- Generator: Adobe Illustrator 17.1.0, SVG Export Plug-In . SVG Version: 6.00 Build 0)  -->
<!DOCTYPE svg PUBLIC "-//W3C//DTD SVG 1.1//EN" "http://www.w3.org/Graphics/SVG/1.1/DTD/svg11.dtd">
<svg version="1.1" xmlns="http://www.w3.org/2000/svg" xmlns:xlink="http://www.w3.org/1999/xlink" x="0px" y="0px"
	 width="1371.7px" height="372.4px" viewBox="0 0 1371.7 372.4" enable-background="new 0 0 1371.7 372.4" xml:space="preserve">
<g id="Layer_1" display="none">
	
		<image display="inline" overflow="visible" width="2816" height="882" xlink:href="../../../../../../Users/kathryn/Desktop/Screen Shot 2015-11-10 at 5.33.57 PM.png"  transform="matrix(0.5 0 0 0.5 -22.8333 -33.157)">
	</image>
</g>
<g id="Layer_2">
	<polygon fill="#FFFFFF" stroke="#000000" stroke-miterlimit="10" points="0.5,21.8 118.5,18.5 118.5,39.2 319.2,35.8 319.2,14.5 
		427.2,14.5 430.2,18.8 437.8,17.5 437.8,32.2 481.2,33.5 481.2,25.5 471.8,8.8 604.2,5.5 596.2,22.3 596.2,31.2 639.2,30.2 
		637.5,7.5 757.5,7.2 759.5,28.2 957.8,24.5 956.2,2.8 1078.5,0.5 1078.5,133.2 1101.8,130.8 1101.8,119.8 1149.5,118.8 
		1149.5,72.5 1173.2,70.2 1173.2,19.8 1285.2,17.5 1286.5,66.8 1317.2,66.8 1320.2,99.2 1367.8,98.8 1371.2,219.8 1322.2,222.5 
		1322.8,253.8 1292.2,255.2 1292.2,304.8 1179.5,306.8 1179.2,265.2 1150.8,262.5 1151.2,233.2 1103.2,232.5 1101.8,219.8 
		1082.2,221.2 1083.5,350.8 963.5,352.8 963.2,348.5 956.2,345.8 956.2,332.8 764.2,334.8 764.2,358.2 644.8,359.8 643.8,339.2 
		600.5,338.2 601.8,356.8 489.2,359.8 487.5,339.2 445.5,341.2 444.5,362.5 326.5,366.2 325.5,344.5 125.2,348.5 125.8,369.8 
		4.8,371.8 2.8,240.5 15.8,240.5 13.5,152.8 0.5,152.8 	"/>
</g>
</svg>
